<svg viewBox="0 0 760 250" xmlns="http://www.w3.org/2000/svg">
  <rect x="0" y="0" width="760" height="250" rx="16" fill="#FAF9F6" stroke="#ECE8E1"/>

  <!-- ground shadows -->
  <ellipse cx="150" cy="216" rx="42" ry="8" fill="#20201E" opacity="0.05"/>
  <ellipse cx="430" cy="218" rx="34" ry="7" fill="#20201E" opacity="0.05"/>
  <ellipse cx="510" cy="218" rx="34" ry="7" fill="#20201E" opacity="0.05"/>
  <ellipse cx="590" cy="218" rx="34" ry="7" fill="#20201E" opacity="0.05"/>
  <ellipse cx="670" cy="218" rx="34" ry="7" fill="#20201E" opacity="0.05"/>

  <!-- HR person -->
  <rect x="122" y="128" width="56" height="82" rx="26" fill="#C15F3C"/>
  <circle cx="150" cy="108" r="21" fill="#EBB89A"/>
  <!-- clipboard -->
  <rect x="131" y="156" width="46" height="52" rx="5" fill="#FFFFFF" stroke="#E4E0D8" stroke-width="1.5"/>
  <rect x="146" y="152" width="16" height="8" rx="2" fill="#B5524A"/>
  <path d="M139,172 l3,3 l6,-7" fill="none" stroke="#3F7D58" stroke-width="2" stroke-linecap="round" stroke-linejoin="round"/>
  <line x1="152" y1="172" x2="170" y2="172" stroke="#CBD3D9" stroke-width="2.5"/>
  <line x1="139" y1="186" x2="170" y2="186" stroke="#CBD3D9" stroke-width="2.5"/>
  <line x1="139" y1="198" x2="170" y2="198" stroke="#CBD3D9" stroke-width="2.5"/>

  <!-- attention trail -->
  <circle cx="250" cy="168" r="4" fill="#DAC6B9"/>
  <circle cx="284" cy="160" r="4.5" fill="#D2BBAC"/>
  <circle cx="320" cy="152" r="5" fill="#CBAF9E"/>

  <!-- team -->
  <rect x="406" y="140" width="48" height="72" rx="22" fill="#6E7F8D"/>
  <circle cx="430" cy="122" r="18" fill="#C9D2D8"/>
  <rect x="486" y="140" width="48" height="72" rx="22" fill="#6E7F8D"/>
  <circle cx="510" cy="122" r="18" fill="#C9D2D8"/>
  <rect x="566" y="140" width="48" height="72" rx="22" fill="#6E7F8D"/>
  <circle cx="590" cy="122" r="18" fill="#C9D2D8"/>
  <rect x="646" y="140" width="48" height="72" rx="22" fill="#6E7F8D"/>
  <circle cx="670" cy="122" r="18" fill="#C9D2D8"/>
</svg>
